<svg xmlns="http://www.w3.org/2000/svg" viewBox="0 0 395 395"><path d="M214.686 167.469c30.366 0 55.003-24.61 55.003-54.979 0-30.368-24.637-54.989-55.003-54.989S159.69 82.122 159.69 112.49c0 30.369 24.63 54.979 54.996 54.979zm93.004 142.268c-4.374-58.251-11.399-88.45-25.054-107.709-17.576-24.791-44.289-26.866-67.947-26.866-24.472 0-44.436 9.372-59.335 27.855-11.727 14.546-18.042 31.837-23.116 45.731-2.242 6.139-5.314 14.547-7.047 16.642-6.284 7.053-12.49 7.369-17.2 6.845a37.216 37.216 0 0 0-1.663-.153c-9.632-.571-17.892 6.733-18.479 16.35-.582 9.521 6.586 17.724 16.061 18.458l.26.028c23.152 2.547 38.376-8.555 47.076-18.32 6.077-6.823 9.641-16.581 13.768-27.881 1.758-4.814 3.493-9.395 5.288-13.701V337.5h93.049v-93.403c4.188 15.631 7.262 37.849 9.545 68.253.689 9.164 8.336 16.141 17.379 16.141.439 0 .881-.017 1.325-.05 9.607-.721 16.811-9.095 16.09-18.704z"/><path d="M94.933 265.012h20.66a2.954 2.954 0 0 0 2.938-2.628l4.718-43.095a2.923 2.923 0 0 0-.734-2.29 2.946 2.946 0 0 0-2.202-.982H90.216c-.85 0-1.641.355-2.201.982a2.928 2.928 0 0 0-.736 2.29l4.719 43.095a2.956 2.956 0 0 0 2.935 2.628z"/><path d="M313.002 0H82C36.785 0 0 36.784 0 81.998v230.993C0 358.211 36.785 395 82 395h231.002C358.216 395 395 358.211 395 312.991V81.998C395 36.784 358.216 0 313.002 0zM380 312.991C380 349.94 349.944 380 313.002 380H82c-36.944 0-67-30.06-67-67.009V81.998C15 45.055 45.056 15 82 15h231.002C349.944 15 380 45.055 380 81.998v230.993z"/></svg>