<svg height="496pt" viewBox="0 0 496 496" width="496pt" xmlns="http://www.w3.org/2000/svg"><path d="M488 216h-2.473c-38.566 0-75.55-11.848-106.941-34.273l-5.93-4.239a7.99 7.99 0 0 0-9.304 0l-5.926 4.23C326.023 204.153 289.039 216 250.473 216H248c-4.414 0-8 3.586-8 8v119.238c0 38.082 18.336 74.25 49.031 96.778L321.742 464H176v-8c0-4.426-3.586-8-8-8h-24v-16h24c4.414 0 8-3.574 8-8v-32c0-4.426-3.586-8-8-8H40c-4.414 0-8 3.574-8 8v24H8c-4.414 0-8 3.574-8 8v32c0 4.426 3.586 8 8 8h24v24c0 4.426 3.586 8 8 8h128c4.414 0 8-3.574 8-8v-8h167.559l19.714 14.457c1.399 1.031 3.063 1.543 4.727 1.543s3.328-.512 4.727-1.543l74.234-54.441C477.664 417.496 496 381.32 496 343.238V224c0-4.414-3.586-8-8-8zM48 432h16v16H48zm80-16h-16v-16h16zm-48 32v-16h16v16zm16 16v16H80v-16zm16 0h16v16h-16zm16-16h-16v-16h16zm32-32h-16v-16h16zm-64-16v16H80v-16zm-48 0h16v16H48zm-32 32h16v16H16zm32 32h16v16H48zm112 16h-16v-16h16zm320-136.762c0 33-15.887 64.356-42.496 83.867L368 478.078l-69.504-50.965C271.886 407.593 256 376.238 256 343.238V231.93c39.93-1.082 78.098-13.883 110.719-37.176l1.281-.922 1.281.922c32.621 23.293 70.79 36.094 110.719 37.176zm0 0"/><path d="M96 240H80v16c-13.23 0-24 10.77-24 24s10.77 24 24 24h16c4.406 0 8 3.586 8 8s-3.594 8-8 8H56v16h24v16h16v-16c13.23 0 24-10.77 24-24s-10.77-24-24-24H80c-4.406 0-8-3.586-8-8s3.594-8 8-8h40v-16H96zm0 0"/><path d="M175.594 304H224v-16h-48.406c-.496-5.504-1.54-10.84-3.008-16H224v-16h-57.71c-2.93-5.71-6.403-11.098-10.458-16H224v-16h-85.559C124.145 213.953 106.77 208 88 208c-8.328 0-16.36 1.238-24 3.406V48h240v56c0 4.414 3.586 8 8 8h56v48h16v-56a7.974 7.974 0 0 0-2.344-5.656l-63.992-63.992A7.98 7.98 0 0 0 312 32H96V16h304v160h16V8c0-4.414-3.586-8-8-8H88c-4.414 0-8 3.586-8 8v24H56c-4.414 0-8 3.586-8 8v177.71C19.55 232.313 0 261.888 0 296c0 48.52 39.48 88 88 88 45.824 0 83.535-35.215 87.594-80zM320 59.312L356.688 96H320zM88 368c-39.695 0-72-32.297-72-72s32.305-72 72-72 72 32.297 72 72-32.305 72-72 72zm0 0"/><path d="M80 64h16v16H80zm0 0M112 64h16v16h-16zm0 0M144 64h16v16h-16zm0 0M176 64h16v16h-16zm0 0M80 96h144v16H80zm0 0M80 128h144v16H80zm0 0M80 160h144v16H80zm0 0"/></svg>