<svg xmlns="http://www.w3.org/2000/svg" width="512" height="512"><path d="M451.34 306.002c-14.207-6.71-29.421-10.112-45.221-10.112-18.045 0-35.047 4.541-49.93 12.532-22.999-19.746-52.376-34.487-85.162-42.901.799-.508 1.603-1.008 2.392-1.535 26.329-17.56 43.831-43.027 49.007-70.326 10.493-2.812 19.633-10.017 25.367-20.347 7.535-13.575 7.768-29.756.607-42.228a10.072 10.072 0 0 0-8.733-5.057h-.011l-15.026.017c.913-34.59-8.875-63.992-28.587-85.522C275.084 17.63 243.078 4.5 208.233 4.5c-30.285 0-60.269 9.984-82.263 27.393-24.876 19.689-38.575 47.928-38.575 79.512v14.652H72.868a10.072 10.072 0 0 0-8.731 5.051c-7.342 12.771-7.197 29.202.379 42.88 5.504 9.938 14.308 16.896 24.451 19.671 4.145 22.188 16.413 42.975 35.579 59.787a127.753 127.753 0 0 0 16.168 12.049c-18.658 4.567-35.895 10.939-51.48 19.076-4.931 2.575-6.841 8.658-4.267 13.588a10.071 10.071 0 0 0 8.936 5.413c1.57 0 3.164-.369 4.652-1.146 19.831-10.354 42.742-17.604 68.183-21.613l12.719 34.655-20.187 104.985a10.074 10.074 0 0 0 .415 5.316l7.37 20.454c-30.184-1.671-59.828-5.431-88.111-11.164v-39.665c0-5.562-4.509-10.07-10.071-10.07-5.562 0-10.071 4.509-10.071 10.07v35.198c-13.128-3.173-25.907-6.778-38.241-10.808 2.007-25.811 9.507-48.782 22.335-68.376 3.046-4.654 1.744-10.896-2.909-13.942-4.652-3.045-10.894-1.744-13.942 2.909C9.952 364.954 1.192 393.937.007 426.52a10.072 10.072 0 0 0 6.78 9.886c52.297 18.042 112.645 28.631 174.517 30.622h.039c7.434.231 14.96.348 22.371.348l2.42-.004 2.489.004c7.411 0 14.938-.117 22.373-.348h.036c29.178-.937 58.006-3.79 85.827-8.439a105.731 105.731 0 0 0 38.954 36.199c15.357 8.317 32.753 12.712 50.307 12.712 58.383 0 105.88-47.47 105.88-105.818 0-40.723-23.81-78.28-60.66-95.68zm-235.908-1.446h-18.525l-7.654-20.857a114.913 114.913 0 0 0 16.398 1.296l.681.002c5.558 0 11.164-.445 16.758-1.299l-7.658 20.858zm114.75-141.019c-.979 1.764-2.977 4.792-6.146 7.272v-24.622l8.862-.01c1.272 5.489.347 11.842-2.716 17.36zm-222.646-52.132c0-56.355 51.881-86.763 100.697-86.763 29.21 0 55.801 10.746 72.955 29.482 16.193 17.686 24.169 42.421 23.292 71.933h-76.378c-35.146 0-62.629-10.452-84.023-31.952a10.07 10.07 0 0 0-11.031-2.184 10.071 10.071 0 0 0-6.179 9.395c.087 8.214-1.875 14.405-5.83 18.403-3.779 3.819-9.14 5.437-13.503 6.102v-14.416zm-25.4 52.825c-3.14-5.668-4.007-12.286-2.56-18.031h7.818v24.445c-2.69-2.246-4.396-4.857-5.258-6.414zm25.4 12.565v-30.684c8.208-.806 19.306-3.619 27.821-12.226 3.722-3.761 6.561-8.208 8.504-13.307 22.914 17.211 50.652 25.62 84.241 25.62h75.793v30.596c0 2.436-.133 4.869-.388 7.292-.005.063-.013.124-.017.187-2.601 24.079-17.606 47.188-41.249 62.957-17.048 11.376-36.878 17.624-55.906 17.624l-.557-.002c-9.711-.061-19.259-1.609-28.358-4.387a8.87 8.87 0 0 0-.432-.175l-.004-.002a9.91 9.91 0 0 0-.848-.282l-.114-.034a9.87 9.87 0 0 0-.639-.149c-38.104-12.491-67.847-46.555-67.847-83.028zm98.598 270.436l-2.42.004c-4.949 0-9.953-.054-14.943-.16l-9.199-25.532 18.622-96.845h15.95l18.622 96.845-9.199 25.532c-4.991.107-9.994.16-14.943.16l-2.49-.004zm39.148-1.006l7.371-20.456c.613-1.702.757-3.539.415-5.316L232.88 315.471l12.74-34.7c35.929 5.842 68.351 19.576 93.135 39.368-23.493 19.42-38.487 48.764-38.487 81.543 0 13.245 2.469 26.11 7.069 38.054-20.246 3.162-41.021 5.331-62.055 6.489zm160.837 41.134c-14.214 0-28.294-3.556-40.727-10.289a85.612 85.612 0 0 1-34.397-34.115c-.04-.078-.081-.154-.122-.231a85.569 85.569 0 0 1-10.464-41.042c0-47.228 38.45-85.65 85.71-85.65 12.802 0 25.122 2.753 36.62 8.184 29.839 14.089 49.12 44.498 49.12 77.467 0 47.241-38.463 85.676-85.74 85.676z"/><path d="M59.757 326.823c1.915 0 3.852-.546 5.566-1.686l.17-.113c4.632-3.079 5.891-9.33 2.812-13.962s-9.329-5.891-13.962-2.811l-.17.113c-4.632 3.078-5.891 9.33-2.812 13.962a10.06 10.06 0 0 0 8.396 4.497zm380.282 91.142c0 8.382-2.408 15.094-7.254 20.135-4.817 5.041-10.684 8.383-17.569 9.996v10.308c0 5.239-4.449 9.488-9.663 9.488s-9.493-4.249-9.493-9.488V448.18c-4.279-.99-8.162-2.576-11.619-4.758-3.542-2.266-6.007-4.247-7.424-5.975l-2.068-2.72c-8.785-11.469 5.667-23.703 14.083-14.867 1.02 1.047 2.097 2.351 3.344 3.71 3.514 3.909 8.672 4.53 12.865 4.53 7.935 0 11.93-3.256 11.93-9.825 0-2.351-1.53-4.164-4.534-5.466-3.004-1.274-6.66-2.435-10.938-3.456-4.309-1.019-8.616-2.406-12.894-4.106-4.307-1.727-7.962-4.673-10.966-8.865-3.004-4.191-4.506-9.515-4.506-15.944 0-6.457 2.068-12.205 6.121-17.388 3.996-5.126 9.776-8.608 16.776-9.968v-12.999c0-5.21 4.279-9.487 9.493-9.487 5.243 0 9.493 4.277 9.493 9.487v13.14c3.004.652 5.753 1.558 8.218 2.747 2.494 1.161 4.194 2.124 5.158 2.889l1.473 1.274c12.469 9.346.425 25.913-10.343 16.85-7.283-6.117-23.832-7.476-23.832 3.767 0 2.38 1.105 4.277 3.287 5.722 2.211 1.443 4.931 2.436 8.162 2.917 3.202.482 6.745 1.274 10.627 2.407 3.854 1.133 7.424 2.435 10.627 3.937 3.23 1.501 5.95 4.164 8.161 7.987 2.18 3.795 3.285 8.554 3.285 14.245z"/></svg>