<svg xmlns="http://www.w3.org/2000/svg" viewBox="0 0 496 496"><path d="M120.004 376h-16V232h288v144h-16v16h32V216h-56v-.808c18.232-3.72 32-19.872 32-39.192 0-13.128-6.448-24.704-16.248-32h.248V96c0-20.032-14.8-36.664-34.032-39.552C321.932 22.944 289.716 0 253.764 0h-5.76c-66.168 0-120 53.832-120 120v24h.248c-9.8 7.296-16.248 18.872-16.248 32 0 19.312 13.768 35.472 32 39.192V216h-56v176h32v-16zm216.008-160H160.004v-64h31.432c35.208 0 68.496-12.496 94.8-35.408l2.448 4.088c10.208 17.016 27.872 28.328 47.328 30.792V216zm31.992-39.992c0 10.416-6.712 19.208-16 22.52V153.48c9.288 3.312 16 12.112 16 22.528zm-224-56.008c0-57.344 46.656-104 104-104h5.76c30.736 0 58.104 20.64 66.552 50.192L321.972 72h6.032c13.232 0 24 10.768 24 24v40.808a39.963 39.963 0 0 0-8-.808c-16.944 0-32.888-9.024-41.608-23.552l-12.808-21.344-7.248 7.24C258.06 122.624 225.772 136 191.436 136h-39.432c-2.736 0-5.416.28-8 .808V120zm-16 56c0-10.416 6.712-19.216 16-22.528v45.048c-9.288-3.304-16-12.104-16-22.52z"/><path d="M240.004 280h16c4.408 0 8 3.584 8 8h16c0-13.232-10.768-24-24-24v-8h-16v8c-13.232 0-24 10.768-24 24s10.768 24 24 24h16c4.408 0 8 3.584 8 8s-3.592 8-8 8h-16c-4.408 0-8-3.584-8-8h-16c0 13.232 10.768 24 24 24v8h16v-8c13.232 0 24-10.768 24-24s-10.768-24-24-24h-16c-4.408 0-8-3.584-8-8s3.592-8 8-8zM152.004 248h-32v32h16v-16h16zM376.004 280v-32h-32v16h16v16zM120.004 328v32h32v-16h-16v-16zM344.004 360h32v-32h-16v16h-16z"/><path d="M447.812 390.192c-2.376-14.248-8.424-27.936-17.504-39.568l-12.616 9.84c7.44 9.536 12.4 20.728 14.336 32.352L446.556 480H397.42l-37.592-93.976C353.508 370.208 338.42 360 321.396 360c-22.824 0-41.392 18.568-41.392 41.568 0 5.28 1 10.448 2.96 15.368L308.188 480H187.82l25.224-63.072c1.96-4.912 2.96-10.08 2.96-15.536 0-22.824-18.568-41.392-41.392-41.392-17.024 0-32.112 10.208-38.432 26.024L98.588 480H49.452l14.528-87.176c1.936-11.624 6.896-22.816 14.336-32.352l-12.616-9.84c-9.072 11.632-15.128 25.32-17.504 39.568L30.556 496h434.888l-17.632-105.808zm-296.776 1.768c3.88-9.696 13.136-15.96 23.576-15.96 14 0 25.392 11.392 25.392 25.568 0 3.232-.616 6.416-1.816 9.432l-7.832 19.592-46.752-20.032 7.432-18.6zM170.588 480H115.82l21.84-54.592 46.752 20.032L170.588 480zm135.072-49.408l-7.832-19.584c-1.208-3.024-1.824-6.2-1.824-9.616 0-14 11.392-25.392 25.392-25.392 10.448 0 19.696 6.264 23.576 15.96l7.44 18.592-46.752 20.04zM325.42 480l-13.824-34.552 46.752-20.04L380.188 480H325.42z"/><path d="M232.004 376h32v16h-32z"/></svg>